<mxfile host="app.diagrams.net" modified="2023-01-20T15:53:02.219Z" agent="5.0 (X11; CrOS x86_64 14909.132.0) AppleWebKit/537.36 (KHTML, like Gecko) Chrome/104.0.0.0 Safari/537.36" etag="CXD2iaJNHYFVnJmeHKFD" version="20.8.9" type="github">
  <diagram name="Page-1" id="tGf0pls6zJaBDZakemk3">
    <mxGraphModel dx="465" dy="432" grid="1" gridSize="10" guides="1" tooltips="1" connect="1" arrows="1" fold="1" page="1" pageScale="1" pageWidth="291" pageHeight="413" math="0" shadow="0">
      <root>
        <mxCell id="0" />
        <mxCell id="1" parent="0" />
        <mxCell id="9300QycROqR3V97BMiuH-1" value="&lt;h1&gt;Howdy do! I&#39;m Happy Lincoln!&lt;/h1&gt;&lt;p&gt;I&#39;m a cowboy who loves to do that whole hypotenuse-leg thing! I wanna make sure you&#39;re right for me however, because I only work with those who are congruence with my sides, and if you don&#39;t work with me from all angle, then you&#39;re not my match!&lt;/p&gt;&lt;p&gt;--HL&lt;/p&gt;" style="text;html=1;strokeColor=none;fillColor=none;spacing=5;spacingTop=-20;whiteSpace=wrap;overflow=hidden;rounded=0;" vertex="1" parent="1">
          <mxGeometry x="582" y="160" width="350" height="160" as="geometry" />
        </mxCell>
        <mxCell id="9300QycROqR3V97BMiuH-4" value="" style="verticalLabelPosition=bottom;verticalAlign=top;html=1;shape=mxgraph.basic.orthogonal_triangle" vertex="1" parent="1">
          <mxGeometry x="420" y="120" width="100" height="157" as="geometry" />
        </mxCell>
        <mxCell id="9300QycROqR3V97BMiuH-6" value="" style="verticalLabelPosition=bottom;verticalAlign=top;html=1;shape=mxgraph.basic.smiley" vertex="1" parent="1">
          <mxGeometry x="430" y="148.5" width="100" height="100" as="geometry" />
        </mxCell>
      </root>
    </mxGraphModel>
  </diagram>
</mxfile>
